<?xml version='1.0' encoding='utf-8'?>
<svg xmlns="http://www.w3.org/2000/svg" enable-background="new 0 0 841.89 841.89" version="1.1" viewBox="0 0 841.89 841.89"> <style type="text/css">.st0{fill:none;} .st1{fill-rule:evenodd;clip-rule:evenodd;fill:#D4D48E;} .st2{fill-rule:evenodd;clip-rule:evenodd;fill:#FFD0A1;} .st3{fill-rule:evenodd;clip-rule:evenodd;fill:#FF7F00;} .st4{fill-rule:evenodd;clip-rule:evenodd;fill:#C26100;} .st5{fill-rule:evenodd;clip-rule:evenodd;fill:#949402;} .st6{fill-rule:evenodd;clip-rule:evenodd;fill:#DEB083;} .st7{fill-rule:evenodd;clip-rule:evenodd;fill:#696904;} .st8{fill-rule:evenodd;clip-rule:evenodd;fill:#FAFACB;} .st9{fill-rule:evenodd;clip-rule:evenodd;fill:#F2C394;} .st10{fill-rule:evenodd;clip-rule:evenodd;fill:#BD8B59;} .st11{fill-rule:evenodd;clip-rule:evenodd;fill:#8F663E;} .st12{fill-rule:evenodd;clip-rule:evenodd;fill:#755432;} .st13{fill-rule:evenodd;clip-rule:evenodd;fill:#A15102;} .st14{fill-rule:evenodd;clip-rule:evenodd;fill:#5E2F00;} .st15{fill-rule:evenodd;clip-rule:evenodd;fill:#FFFFFF;} .st16{fill-rule:evenodd;clip-rule:evenodd;fill:#4A4A02;} .st17{fill-rule:evenodd;clip-rule:evenodd;fill:#E08A7B;} .st18{fill-rule:evenodd;clip-rule:evenodd;fill:#693500;} .st19{fill-rule:evenodd;clip-rule:evenodd;fill:#E8B787;} .st20{fill:none;stroke:#D4AA7F;stroke-width:0.9551;stroke-linecap:round;stroke-linejoin:round;stroke-miterlimit:22.9256;} .st21{fill-rule:evenodd;clip-rule:evenodd;fill:#F1CF00;}</style> <polygon class="st0" points="0 0 841.89 0 841.89 841.89 0 841.89"/> <path class="st1" d="m349.08 763c113.41 0 205.34 10.77 205.34 24.05s-91.94 24.05-205.34 24.05c-113.41 0-205.34-10.77-205.34-24.05s91.93-24.05 205.34-24.05z"/> <path class="st2" d="m367.96 434.01c52.23-47.7 93.47-75.96 124.08-90.12-1.63-2.75-3.34-7.19-0.75-11.14 4.12-6.31 14.46 5.44 14.46 5.44l-0.02 0.01c12.17-4.4 22.21-6.14 30.19-5.72 3.93-3.89 14.99-14.26 23.03-16.23 9.94-2.43 11.16 6.06 7.76 10.43-2.41 3.1-10.45 8.16-14.91 10.83 0.47-0.17 0.76-0.26 0.76-0.26s6.81-2.5 9.6 0.81c4.85 5.74 1.34 10.76-3.43 13.45 0.02 0.11 0.02 0.23 0.04 0.34 1.22-0.13 7.17-0.59 9 2.85 3.45 6.5-0.78 10.63-5.87 12.32 1.42 0.23 2.88 0.8 3.58 2.1 4.43 8.34-7.72 11.57-11.69 9.43-14.55 34.89-59.27 82.06-132.53 113.81l-53.3-58.35z"/> <path class="st2" d="m284.85 468.56s-65.52-5.65-112.11 5.89c-0.95-3.86-3.17-8.63-8.42-10.06-7.59-2.08-8.9 10.97-9.13 15.71-1.82 0.76-3.59 1.55-5.28 2.39-6.41 3.2-11.58 6.76-15.69 10.55-6.89-0.71-16.64-1.12-22.31 1.23-9.46 3.91-5.43 11.48-0.11 13 2.49 0.71 7.45 0.67 12.03 0.42-0.95 2.4-1.6 4.83-1.96 7.25-5.51 0.44-11.3 1.43-15.01 3.49-8.94 4.98-4.06 12.03 1.4 12.92 3.1 0.51 9.71-0.52 14.83-1.5 0.35 1.13 0.75 2.24 1.21 3.34-4.23 1.71-8.72 3.76-10.66 5.45-4.17 3.63-4.62 12.19 5.6 11.73 3.92-0.18 8.86-2.07 13.47-4.35 1.21 1.28 2.5 2.51 3.86 3.66-1.76 1.08-3.26 2.13-4.1 3.03-3.36 3.56-3.01 11.15 5.96 9.85 3.43-0.5 7.6-2.59 11.46-4.99 30.48 10.12 112.73-17.56 112.73-17.56l22.23-71.45z"/> <path class="st3" d="m284.85 468.56s-34.57-2.98-71.35-0.19l13.31 82c20.16-5.1 35.8-10.36 35.8-10.36l22.24-71.45z"/> <path class="st4" d="m229.16 467.5c-5.11 0.19-10.35 0.47-15.65 0.87l13.31 82c4-1.01 7.82-2.03 11.37-3.01l-9.03-79.86z"/> <path class="st5" d="m456.17 620.64 0.01 0.02c0.39 2.95 0.59 5.94 0.59 8.97 0 4.14-0.38 8.21-1.1 12.19 22.59 35.01 32.51 143.64-1.75 150.78-15.45 3.22-35.41-1.93-44.43-28.33-8.29-24.28-31.31-48.12-34.95-51.78-8.33 1.62-17.04 2.49-26 2.49-9.69 0-19.37-1.04-28.74-2.98l0.01 0.01s-26.42 25.87-35.44 52.26c-9.01 26.4-28.97 31.55-44.43 28.33-34.65-7.22-24.11-118.23-0.99-151.94l0.01 0.01c0.01-3.63 0.44-7.31 1.35-11.03 11.79-48.38 4.02-189.35 109.33-197.64 70.77-5.57 99.86 138.45 106.53 188.64z"/> <path class="st3" d="m460.91 636.23 0.01 0.02c0.39 2.95 0.6 5.94 0.6 8.97 0 0.63-0.01 1.26-0.03 1.88-46.17 40.43-214.44 27.59-224.43-5.27 10.18-51.66 7.75-203.47 112.6-209.84 6.46-0.39 12.55 0.24 18.32 2.04l-0.01-0.02c23.47-21.44 44.72-38.94 63.78-53.01l51.47 76.72c-17.65 12.53-38.32 24.39-61.98 34.65l-0.01-0.01c20.69 43.99 35.98 116.09 39.68 143.87z"/> <path class="st4" d="m290.65 458.67c14.18-14.65 33.19-24.64 58.99-26.67 6.3-0.49 12.26 0.21 17.91 1.91-3.61 10.39-22.17 24.31-42.76 31.8-21.54 7.83-37.13 5.66-34.83-4.86 0.16-0.71 0.39-1.44 0.69-2.18z"/> <path class="st6" d="m300.33 450.02c12.86-9.87 28.98-16.42 49.31-18.02 3.19-0.25 6.29-0.2 9.31 0.14-3.61 7.85-17.3 17.85-32.41 23.34-16.55 6.02-28.53 4.35-26.76-3.73 0.12-0.56 0.31-1.14 0.55-1.73z"/> <path class="st4" d="m416.21 392.86c5.33-4.2 10.51-8.15 15.54-11.85l51.47 76.72c-5.11 3.63-10.47 7.2-16.09 10.7l-50.92-75.57z"/> <path class="st7" d="m219.67 762.42s-32.89 23.49-18.09 34c14.8 10.5 59.11-2.15 68.47-10.42-0.87-22.17-35.46-27.79-50.38-23.58z"/> <path class="st8" d="m198.9 784.57c-1.91 4.46-1.72 8.72 2.67 11.85 14.8 10.5 59.11-2.15 68.47-10.42-0.08-2.15-0.49-4.14-1.16-5.98-12.39 8.19-52.58 18.88-66.54 8.97-1.82-1.3-2.91-2.8-3.44-4.42z"/> <path class="st9" d="m440.81 297.61c11.97 0 21.67 9.34 21.67 20.87s-9.7 20.87-21.67 20.87-21.67-9.34-21.67-20.87c-0.01-11.53 9.7-20.87 21.67-20.87z"/> <path class="st10" d="m432.1 307.88c-2.33 1.53-4.09 3.6-5.24 5.92 3.87-0.52 7.86 1.12 10.12 4.56 3.16 4.81 1.77 11.3-3.1 14.51-0.23 0.15-0.46 0.29-0.69 0.42 4.61 2.38 10.38 2.25 15.07-0.84 6.88-4.53 8.84-13.7 4.38-20.48s-13.65-8.61-20.54-4.09z"/> <path class="st11" d="m432.1 307.88c-2.33 1.53-4.09 3.6-5.24 5.92 3.87-0.52 7.86 1.12 10.12 4.56 3.16 4.81 1.77 11.3-3.1 14.51-0.19 0.12-0.38 0.24-0.57 0.35 3.57 0.41 7.32-0.39 10.58-2.54 7.31-4.81 9.39-14.55 4.65-21.76-0.46-0.7-0.97-1.35-1.52-1.95-4.58-2.3-10.27-2.14-14.92 0.91z"/> <path class="st12" d="m432.1 307.88c-2.33 1.53-4.09 3.6-5.24 5.92 3.87-0.52 7.86 1.12 10.12 4.56 1.64 2.5 2.06 5.46 1.39 8.17 4.01-5.18 4.53-12.47 0.78-18.17-0.63-0.95-1.34-1.81-2.13-2.58-1.7 0.39-3.36 1.08-4.92 2.1z"/> <path class="st2" d="m153.45 269.52c8.03-69.83 124.41-89.9 172.57-78.66s96.32 42.54 109.16 129.23-89.9 139.66-159.73 128.43c-8.8-1.42-16.83-3.56-24.15-6.22-61.89-22.52-105.07-109.93-97.85-172.78z"/> <path class="st2" d="m182.35 377.88c15.52 0 28.09 12.4 28.09 27.69s-12.58 27.69-28.09 27.69c-15.52 0-28.09-12.4-28.09-27.69 0-15.3 12.57-27.69 28.09-27.69z"/> <path class="st13" d="m340.73 313.19c0.14 0.6-0.13 1.52-0.6 2.06s-0.96 0.49-1.1-0.11c-0.01-0.06-4.61-19.76 12-22.04 16.25-2.23 1.5 28.52 1.46 28.61-0.36 0.75-0.92 1.13-1.25 0.84-0.34-0.29-0.32-1.13 0.04-1.88 0.04-0.08 12.72-26.53-0.88-24.66-13.26 1.82-9.68 17.14-9.67 17.18z"/> <path class="st14" d="m337.01 202.52c18.3-13.38 49.25-2.19 69.11 24.99 19.87 27.18 21.13 60.06 2.83 73.44s-49.25 2.19-69.11-24.99c-0.99-1.35-1.92-2.71-2.82-4.08l-5.38 2.29c2.05 6.52 3.16 13.47 3.16 20.67 0 37.97-30.78 68.76-68.76 68.76-37.97 0-68.76-30.78-68.76-68.76 0-37.97 30.78-68.76 68.76-68.76 27.25 0 50.8 15.85 61.92 38.84l4.07-1.73c-11.98-24.01-10.52-49.33 4.98-60.67zm-70.96 31.36c33.67 0 60.96 27.29 60.96 60.96s-27.29 60.96-60.96 60.96-60.96-27.29-60.96-60.96c0-33.66 27.29-60.96 60.96-60.96zm76.35-23.99c15.56-11.38 41.87-1.86 58.76 21.25s17.97 51.07 2.41 62.44c-15.56 11.38-41.87 1.86-58.76-21.25-16.9-23.11-17.97-51.06-2.41-62.44z"/> <path class="st15" d="m240.52 284.35c4.98-18.16 23.73-28.85 41.9-23.87 18.16 4.98 28.85 23.73 23.87 41.9-4.98 18.16-23.73 28.85-41.9 23.87-18.16-4.98-28.84-23.74-23.87-41.9z"/> <path class="st16" d="m267.7 282.92c2.79-10.17 13.29-16.15 23.46-13.37 10.17 2.79 16.15 13.29 13.37 23.46-2.79 10.17-13.29 16.15-23.46 13.37-10.17-2.79-16.16-13.29-13.37-23.46z"/> <path class="st15" d="m263.2 288.07c1.26-4.61 6.03-7.33 10.64-6.06 4.61 1.26 7.33 6.03 6.06 10.64-1.26 4.61-6.03 7.33-10.64 6.06-4.61-1.26-7.32-6.03-6.06-10.64z"/> <path class="st15" d="m346.07 260.62c-5.93-17.42-1.1-32.1 10.78-32.8 11.88-0.69 26.32 12.87 32.24 30.29 5.93 17.42 1.1 32.1-10.78 32.8-11.88 0.69-26.31-12.87-32.24-30.29z"/> <path class="st16" d="m357.93 258.79c-2.54-10.04 1.65-18.63 9.36-19.18s16.03 7.14 18.57 17.19c2.54 10.04-1.65 18.63-9.36 19.18s-16.02-7.14-18.57-17.19z"/> <path class="st15" d="m353.87 257.64c-1.15-4.55 0.75-8.45 4.25-8.7s7.27 3.24 8.42 7.79-0.75 8.45-4.25 8.7-7.27-3.24-8.42-7.79z"/> <path class="st13" d="m195.31 339.12c53 88.9 199.39 3.24 220.57-33.05 1.05-0.27-11.7 20.72-14.07 34.21-1.98 17.5 6.78 61.62-32.98 80.41-113.04 49.52-173.69-21.45-173.52-81.57z"/> <path class="st17" d="m291.41 437.17c-37.02-1.86-63.73-20.01-79.46-43.68 8.85-7.03 20.98-11.36 34.38-11.36 27.06 0 49 17.7 49 39.53 0 5.51-1.4 10.75-3.92 15.51z"/> <path class="st15" d="m199.52 345.5c41.4 60.99 141.16 23.26 189.79-13.08 2.66 13.44 4.44 35.56 1.24 37.72-46.64 31.36-171.79 58.75-191.1-22.66-0.15-0.65 0.03-1.32 0.07-1.98z"/> <path class="st13" d="m183.88 350.1c-0.26 0.8-0.8 1.39-1.22 1.31s-0.55-0.79-0.3-1.6c0.43-1.35 1.05-2.69 1.84-3.96 1.88-3 4.77-5.63 8.39-7.07 3.5-1.39 7.73-1.72 12.45-0.22 2.03 0.64 4.14 1.62 6.32 2.98 0.36 0.23 0.39 1.04 0.06 1.81s-0.89 1.21-1.25 0.99c-2.13-1.33-4.19-2.28-6.15-2.9-4.51-1.43-8.52-1.13-11.8 0.18-3.16 1.26-5.59 3.42-7.11 5.85-0.53 0.85-0.94 1.74-1.23 2.63z"/> <path class="st10" d="m182.35 388.66c3.21 0 6.2 0.87 8.77 2.38-4.05 1.94-6.84 6.04-6.84 10.78 0 6.62 5.44 11.98 12.15 11.98 0.31 0 0.62-0.01 0.93-0.03-2.93 5.2-8.55 8.72-15.01 8.72-9.47 0-17.15-7.57-17.15-16.91 0-9.35 7.68-16.92 17.15-16.92z"/> <path class="st11" d="m182.35 388.66c3.21 0 6.2 0.87 8.77 2.38-4.05 1.94-6.84 6.04-6.84 10.78 0 6.62 5.44 11.98 12.15 11.98 0.26 0 0.51-0.01 0.77-0.02-3.18 2.65-7.28 4.25-11.77 4.25-10.06 0-18.22-8.04-18.22-17.96 0-0.97 0.08-1.91 0.23-2.84 2.95-5.12 8.52-8.57 14.91-8.57z"/> <path class="st12" d="m182.35 388.66c3.21 0 6.2 0.87 8.77 2.38-4.05 1.94-6.84 6.04-6.84 10.78 0 3.44 1.47 6.54 3.83 8.73-7.12-2.44-12.23-9.12-12.23-16.97 0-1.31 0.14-2.59 0.41-3.82 1.88-0.71 3.92-1.1 6.06-1.1z"/> <path class="st13" d="m204.47 400.42c-3.26-1.63-26.11-36.31-31.82-59.56s7 1.68 8.63-27.69-29.5-60.66 41.95-93.06c47.39-17.3 75.47-8.97 75.47-8.97 9.08-4.74 16.29-11.35 19.74-21.72l19.98 4.79c8.58-8.07 8.54-19.84 6.85-32.31-2.04 4.78-4.85 8.67-9.6 10.31 0.1-11.83-2.48-23.51-10.67-34.85-1.41 8.67-4.52 15.63-10.31 19.92-28.37-21.42-59.38-33.4-91.75-40.54 5.82 15.17 9.57 30.35 8.53 45.52-18.26-1.11-35.38 3.07-51.92 9.96 3.6 1.53 7.73 3.85 8.44 6.7-18.33 3.84-37.58 14.9-47.91 26.73-3.48 2.08 15.29 11.02 15.29 11.02l-29.16 21.69 9.25 4.27c-14.26 33.9-12.1 43.28 5.23 71.7 0 0-5.79 8.11-5.33 11.13 0.46 3.01 32.74 56.25 32.74 56.25l29.01 20.09 7.36-1.38z"/> <path class="st18" d="m237.2 264.99s1.65-19.78 17.81-26.99c16.15-7.21 19.1 11.2 10.74 16.74-8.37 5.53-28.55 10.25-28.55 10.25z"/> <path class="st18" d="m343.29 231.95s-3.52-11.55 3.99-19.26c7.5-7.71 13.31 2.03 9.83 7.04s-13.82 12.22-13.82 12.22z"/> <path class="st8" d="m474.02 763.18s32.19 23.49 17.71 34c-14.48 10.5-57.85-2.15-67.02-10.42 0.85-22.17 34.7-27.8 49.31-23.58z"/> <path class="st7" d="m474.02 763.18s15.13 11.04 19.98 21.37c-0.57 0.79-1.32 1.54-2.27 2.23-13.5 9.79-52.1-0.54-64.7-8.69 7.99-14.93 34.51-18.51 46.99-14.91z"/> <path class="st19" d="m558.76 351.85s-10.15 8.38-15.76 0.67c-5.62-7.71 7.08-15.36 11.23-15.76 4.15-0.39 7.63-1.65 9.87 4.58s-5.34 10.51-5.34 10.51z"/> <path class="st19" d="m561.96 367.35s-11.44 6.5-15.64-2.06 9.63-13.91 13.78-13.58 7.8-0.3 8.93 6.21c1.13 6.53-7.07 9.43-7.07 9.43z"/> <path class="st19" d="m561.23 378.41s-8.31 4.72-11.37-1.5 6.99-10.11 10.01-9.87 5.67-0.22 6.49 4.52c0.83 4.73-5.13 6.85-5.13 6.85z"/> <path class="st20" d="m129.78 499.68c-8.26 8.1-9.43 21.87-5.23 32.42 5.22 13.09 15.37 20.45 23.83 24.31"/> <path class="st15" d="m295.57 290.41c0.67-2.45 3.21-3.9 5.66-3.23s3.9 3.21 3.23 5.66-3.21 3.9-5.66 3.23c-2.46-0.67-3.9-3.21-3.23-5.66z"/> <path class="st15" d="m378.95 264.3c0.54-1.96 2.56-3.12 4.53-2.58 1.96 0.54 3.12 2.56 2.58 4.53-0.54 1.96-2.56 3.12-4.53 2.58-1.96-0.54-3.12-2.57-2.58-4.53z"/> <path class="st21" d="m629.85 112.41c29.42 0 53.27 23.85 53.27 53.27 0 47.89-34.3 29.72-34.3 68.23h-37.94c0-38.5-34.3-20.33-34.3-68.23 0-29.41 23.85-53.27 53.27-53.27zm62.55 97.86c6.28 2.47 15.31 6.22 22.23 10.01 16.87 9.24 17 26.65-5.33 11.72-6.89-4.61-15.43-11.05-20.92-15.93-11.57-10.28-6.27-9.84 4.02-5.8zm-122.62-4.57c-6.05 2.98-14.74 7.48-21.32 11.83-16.04 10.61-14.72 27.98 6.29 11.24 6.48-5.17 14.46-12.29 19.52-17.61 10.67-11.23 5.43-10.34-4.49-5.46zm64.96-114.8c1.37-6.61 3.16-16.22 3.77-24.08 1.48-19.18-13.02-28.81-12.73-1.95 0.09 8.29 0.81 18.96 1.9 26.22 2.29 15.32 4.81 10.64 7.06-0.19zm45.57 23.56c6.28-2.47 15.31-6.22 22.23-10.01 16.87-9.24 17-26.65-5.33-11.72-6.89 4.61-15.43 11.05-20.92 15.93-11.57 10.28-6.27 9.84 4.02 5.8zm23.94 56.85c6.69 0.85 16.42 1.89 24.31 1.88 19.23-0.01 27.7-15.23 0.95-12.84-8.26 0.74-18.84 2.29-26 3.94-15.09 3.47-10.23 5.63 0.74 7.02zm-128.47-58.17c-6.05-2.98-14.74-7.48-21.32-11.83-16.04-10.61-14.72-27.98 6.29-11.24 6.49 5.17 14.46 12.29 19.52 17.61 10.67 11.23 5.43 10.35-4.49 5.46zm-19.51 50.12c-6.72 0.6-16.48 1.27-24.36 0.97-19.22-0.73-27.12-16.25-0.47-12.87 8.23 1.04 18.74 2.99 25.83 4.9 14.95 4.05 10.01 6.02-1 7zm89.19 102.89c-0.42 6.04-7.5 10.86-16.18 10.86-7.24 0-13.36-3.34-15.44-7.96l31.62-2.9zm-31.44-7.21 30.96-2.84c2-0.18 3.64 1.32 3.64 3.33 0 2.02-1.64 3.82-3.64 4l-30.96 2.84c-2 0.18-3.63-1.32-3.63-3.33s1.63-3.81 3.63-4zm0-10.1 30.96-2.84c2-0.18 3.64 1.32 3.64 3.33 0 2.02-1.64 3.82-3.64 4l-30.96 2.84c-2 0.18-3.63-1.32-3.63-3.33 0-2.02 1.63-3.82 3.63-4zm0-10.59 30.96-2.84c2-0.18 3.64 1.32 3.64 3.33 0 2.02-1.64 3.82-3.64 4l-30.96 2.84c-2 0.18-3.63-1.32-3.63-3.33 0-2.02 1.63-3.82 3.63-4z"/> </svg>